<?xml version="1.0" encoding="iso-8859-1"?>
<!-- Generator: Adobe Illustrator 19.0.0, SVG Export Plug-In . SVG Version: 6.00 Build 0)  -->
<svg version="1.1" id="Layer_1" xmlns="http://www.w3.org/2000/svg" xmlns:xlink="http://www.w3.org/1999/xlink" x="0px" y="0px"
	 viewBox="0 0 512 512" style="enable-background:new 0 0 512 512;" xml:space="preserve">
<g>
	<g>
		<path d="M369.231,187.077c51.577,0,93.538-41.962,93.538-93.538C462.769,41.962,420.808,0,369.231,0s-93.538,41.962-93.538,93.538
			c0,17.192,4.683,33.302,12.809,47.159c-0.371,0.366-0.738,0.739-1.056,1.173L182.088,285.538h-34.309
			c-21.764,0-39.471,17.668-39.471,39.385c0,7.28,2.025,14.081,5.49,19.937C94.13,347.008,78.769,363.735,78.769,384
			c0,8.409,2.667,16.193,7.167,22.598c-21.323,7.284-36.705,27.498-36.705,51.248v44.308c0,5.438,4.409,9.846,9.846,9.846H384
			c5.438,0,9.846-4.409,9.846-9.846v-44.308c0-23.751-15.382-43.964-36.705-51.248c4.499-6.404,7.167-14.189,7.167-22.598
			c0-20.265-15.361-36.992-35.029-39.139c3.465-5.857,5.49-12.658,5.49-19.937c0-21.716-17.707-39.385-39.471-39.385h-20.901
			L342.623,183.2C351.062,185.709,359.988,187.077,369.231,187.077z M369.231,19.692c40.719,0,73.846,33.127,73.846,73.846
			c0,40.719-33.127,73.846-73.846,73.846s-73.846-33.127-73.846-73.846C295.385,52.82,328.512,19.692,369.231,19.692z
			 M374.154,457.846v34.462H68.923v-34.462c0-19.002,15.469-34.462,34.482-34.462h14.677h206.913h14.675
			C358.685,423.385,374.154,438.844,374.154,457.846z M324.995,364.308c10.818,0,19.62,8.834,19.62,19.692
			s-8.802,19.692-19.62,19.692H118.082c-10.818,0-19.62-8.834-19.62-19.692s8.802-19.692,19.62-19.692h29.697h147.519H324.995z
			 M295.298,305.231c10.906,0,19.779,8.834,19.779,19.692s-8.873,19.692-19.779,19.692H147.779
			c-10.906,0-19.779-8.834-19.779-19.692s8.873-19.692,19.779-19.692h39.298H256H295.298z M250.731,285.538h-44.224l94.186-128.435
			c6.764,7.288,14.667,13.5,23.431,18.346L250.731,285.538z"/>
	</g>
</g>
<g>
</g>
<g>
</g>
<g>
</g>
<g>
</g>
<g>
</g>
<g>
</g>
<g>
</g>
<g>
</g>
<g>
</g>
<g>
</g>
<g>
</g>
<g>
</g>
<g>
</g>
<g>
</g>
<g>
</g>
</svg>
