<?xml version="1.0" encoding="UTF-8" standalone="no"?>
<svg
   xmlns:dc="http://purl.org/dc/elements/1.1/"
   xmlns:cc="http://web.resource.org/cc/"
   xmlns:rdf="http://www.w3.org/1999/02/22-rdf-syntax-ns#"
   xmlns:svg="http://www.w3.org/2000/svg"
   xmlns="http://www.w3.org/2000/svg"
   width="600" height="600" viewBox="0 0 350 350"
   version="1.0">
  <metadata>
    <rdf:RDF>
      <cc:Work rdf:about="">
        <dc:format>image/svg+xml</dc:format>
        <dc:type rdf:resource="http://purl.org/dc/dcmitype/StillImage" />
      </cc:Work>
    </rdf:RDF>
  </metadata>
  <title>No Smoking symbol</title>
  <circle cx="175" cy="175" r="156" 
       style="fill:#ffffff;fill-opacity:1;stroke:#da0000;stroke-width:30;stroke-opacity:1" />
  <path d="M59.7483,209.467 V249.486 H250.102 V209.467Z
M255.785,249.486 H265.746 V209.467 H255.785Z
M272.03,249.486 H281.991 V209.467 H272.03Z
M160.051,84.2327
C160.051,102.393,169.657,118.16,183.557,122.83
C187.861,124.275,187.93,124.185,187.93,127.637
C187.93,129.433,187.829,130.331,187.829,132.127
C187.829,151.457,197.011,159.099,205.082,164.344
L224.26,164.737
C244.561,165.154,246.11,165.386,250.101,168.615
C252.408,170.481,254.615,174.785,255.245,178.644
C255.542,180.464,255.786,186.358,255.786,191.742
C255.786,197.125,255.937,201.729,256.122,201.971
C256.306,202.214,258.574,202.413,261.161,202.413
L265.865,202.413 V190.635
C265.865,177.843,265.377,173.908,263.046,167.864
C261.304,163.348,257.214,158.077,253.704,155.824
C247.87,152.08,246.931,151.931,226.556,151.5
C205.715,151.059,205.68,151.052,202.448,146.731
C199.57,142.883,198.055,137.403,198.055,131.818
C198.055,124.69,200.816,120.414,200.816,117.563
C200.816,104.901,174.998,119.671,170.517,88.0042
C170.329,86.6763,170.238,85.301,170.238,83.9031
C170.238,69.6112,179.831,57.4187,186.226,57.4187
C189.42,57.4187,189.722,55.8288,189.722,53.444
C189.722,51.9333,189.731,50.6405,189.731,49.5378
C189.731,44.9082,189.569,43.6276,187.887,43.6276
C176.753,43.6276,160.058,57.0817,160.051,84.2327Z
M200.099,57.0876 V69.5769
C200.099,69.5774,224.269,71.7478,224.268,99.608
C224.218,116.056,218.089,121.242,218.089,126.44
C218.089,131.946,220.504,132.895,231.779,132.895
C243.694,132.895,247.812,133.773,253.658,137.559
C261.031,142.334,266.826,151.498,269.758,163.019
C271.041,168.061,271.113,169.066,271.267,183.875
C271.356,192.432,271.542,200.104,271.68,200.923
C271.92,202.348,272.153,202.413,277.017,202.413
L282.102,202.413 L281.866,185.695
C281.651,170.384,281.521,168.434,280.326,162.511
C275.877,140.465,263.425,124.636,247.352,120.596
C245.29,120.078,241.141,119.654,238.133,119.654
C233.42,119.654,232.351,119.304,232.351,118.778
C232.351,115.184,234.82,111.589,234.82,100.806
C234.82,71.2675,214.692,56.8612,203.104,56.8612
C202.804,56.8612,202.501,56.886,200.099,57.0876Z"/>
  <path transform="translate(-14,14)" d="M65,65 L285,285"
       style="fill:none;stroke:#da0000;stroke-width:39;stroke-linecap:butt;stroke-opacity:1" />
</svg>
