<?xml version="1.0" encoding="iso-8859-1"?>
<!-- Generator: Adobe Illustrator 16.0.0, SVG Export Plug-In . SVG Version: 6.00 Build 0)  -->
<!DOCTYPE svg PUBLIC "-//W3C//DTD SVG 1.1//EN" "http://www.w3.org/Graphics/SVG/1.1/DTD/svg11.dtd">
<svg version="1.1" id="Capa_1" xmlns="http://www.w3.org/2000/svg" xmlns:xlink="http://www.w3.org/1999/xlink" x="0px" y="0px"
	 width="612.051px" height="612.051px" viewBox="0 0 612.051 612.051" style="enable-background:new 0 0 612.051 612.051;"
	 xml:space="preserve">
<g>
	<path d="M601.406,425.926l-102.4,87.199v31.301c0,6.699-5.7,11.3-12.4,11.3h-68.3c-6.7,0-12.399-4.8-12.399-11.3v-70.2
		c0-3.7,1.899-7.601,4.8-9.5l125.1-77.7l12.4-165c0-14.3,11.3-25.6,25.6-25.6s25.601,11.3,25.601,24.6l12.399,178.3
		C612.806,413.726,611.006,418.325,601.406,425.926z M110.206,364.426v-14.301v-109c0-12.4,1.9-20.9,7.6-33.2l60.7-126.1
		c6.7-14.3,25.6-26.5,41.7-26.5h171.7c17,0,36.1,11.3,42.6,26.5l60.7,126.1c5.7,12.4,7.6,21.8,7.6,33.2v109.1v14.3
		c0,4.8-4.8,9.5-9.5,9.5h-48.3c-5.7,0-9.5-4.8-9.5-9.5v-14.3v-16.2h-258v16.1v14.301c0,4.8-4.8,9.5-9.5,9.5h-48.3
		C115.006,373.926,110.206,369.125,110.206,364.426z M439.306,236.325c-17,0-30.399,14.3-30.399,30.4c0,16.1,13.3,30.4,30.399,30.4
		c17,0,30.4-13.3,30.4-30.4C469.706,249.625,456.306,236.325,439.306,236.325z M165.206,204.125h282.6l-41.7-87.2
		c-8.5-17-16.1-20.9-33.199-20.9H239.306c-17,0-24.6,3.7-32.2,20.9L165.206,204.125z M143.406,266.625c0,16.1,13.3,30.4,30.4,30.4
		c17.1,0,30.4-13.3,30.4-30.4s-13.3-30.4-30.4-30.4C156.706,236.226,143.406,250.525,143.406,266.625z M202.206,465.726l-125.1-77.7
		l-12.4-165c0.9-15.2-11.3-26.5-25.6-26.5c-14.3,0-26.5,11.3-26.5,25.5l-12.4,178.4c-0.9,14.3,0.9,18.899,10.4,26.5l102.4,87.199
		v31.301c0,6.699,5.7,11.3,12.4,11.3h69.3c6.7,0,12.4-4.8,12.4-11.3v-70.2C206.906,471.525,205.006,467.825,202.206,465.726z"/>
</g>
<g>
</g>
<g>
</g>
<g>
</g>
<g>
</g>
<g>
</g>
<g>
</g>
<g>
</g>
<g>
</g>
<g>
</g>
<g>
</g>
<g>
</g>
<g>
</g>
<g>
</g>
<g>
</g>
<g>
</g>
</svg>
